<svg id="SvgjsSvg1006" width="1118.25" height="657" xmlns="http://www.w3.org/2000/svg" version="1.1" xmlns:xlink="http://www.w3.org/1999/xlink" xmlns:svgjs="http://svgjs.com/svgjs"><defs id="SvgjsDefs1007"><marker id="SvgjsMarker1074" markerWidth="16" markerHeight="12" refX="16" refY="6" viewBox="0 0 16 12" orient="auto" markerUnits="userSpaceOnUse" stroke-dasharray="0,0"><path id="SvgjsPath1075" d="M0,2 L14,6 L0,11 L0,2" fill="#00bcd4" stroke="#00bcd4" stroke-width="2"></path></marker><marker id="SvgjsMarker1078" markerWidth="16" markerHeight="12" refX="16" refY="6" viewBox="0 0 16 12" orient="auto" markerUnits="userSpaceOnUse" stroke-dasharray="0,0"><path id="SvgjsPath1079" d="M0,2 L14,6 L0,11 L0,2" fill="#00bcd4" stroke="#00bcd4" stroke-width="2"></path></marker><marker id="SvgjsMarker1082" markerWidth="16" markerHeight="12" refX="16" refY="6" viewBox="0 0 16 12" orient="auto" markerUnits="userSpaceOnUse" stroke-dasharray="0,0"><path id="SvgjsPath1083" d="M0,2 L14,6 L0,11 L0,2" fill="#00bcd4" stroke="#00bcd4" stroke-width="2"></path></marker><marker id="SvgjsMarker1105" markerWidth="16" markerHeight="12" refX="16" refY="6" viewBox="0 0 16 12" orient="auto" markerUnits="userSpaceOnUse" stroke-dasharray="0,0"><path id="SvgjsPath1106" d="M0,2 L14,6 L0,11 L0,2" fill="#ff9800" stroke="#ff9800" stroke-width="2"></path></marker></defs><g id="SvgjsG1008" transform="translate(319.25,25)"><path id="SvgjsPath1009" d="M 0 4Q 0 0 4 0L 770 0Q 774 0 774 4L 774 603Q 774 607 770 607L 4 607Q 0 607 0 603Z" stroke-dasharray="10,6" stroke="rgba(255,152,0,1)" stroke-width="2" fill-opacity="1" fill="#ffffff"></path><g id="SvgjsG1010"><text id="SvgjsText1011" font-family="微软雅黑" text-anchor="middle" font-size="13px" width="754px" fill="#323232" font-weight="400" align="middle" lineHeight="125%" anchor="middle" family="微软雅黑" size="13px" weight="400" font-style="" opacity="1" y="293.875" transform="rotate(0)"></text></g></g><g id="SvgjsG1012" transform="translate(25.014705882352587,238)"><path id="SvgjsPath1013" d="M 0 4Q 0 0 4 0L 116.0346003898635 0Q 120.0346003898635 0 120.0346003898635 4L 120.0346003898635 54.876789214309895Q 120.0346003898635 58.876789214309895 116.0346003898635 58.876789214309895L 4 58.876789214309895Q 0 58.876789214309895 0 54.876789214309895Z" stroke="rgba(255,255,255,1)" stroke-width="2" fill-opacity="1" fill="#4caf50"></path><g id="SvgjsG1014"><text id="SvgjsText1015" font-family="微软雅黑" text-anchor="middle" font-size="24px" width="101px" fill="#ffffff" font-weight="700" align="middle" lineHeight="125%" anchor="middle" family="微软雅黑" size="24px" weight="700" font-style="" opacity="1" y="9.438394607154947" transform="rotate(0)"><tspan id="SvgjsTspan1016" dy="30" x="60.5"><tspan id="SvgjsTspan1017" style="text-decoration:;">接入端</tspan></tspan></text></g></g><g id="SvgjsG1018" transform="translate(418.80882352941137,64)"><path id="SvgjsPath1019" d="M 0 4Q 0 0 4 0L 285.5 0Q 289.5 0 289.5 4L 289.5 151Q 289.5 155 285.5 155L 4 155Q 0 155 0 151Z" stroke-dasharray="10,6" stroke="rgba(0,188,212,1)" stroke-width="2" fill-opacity="1" fill="#ffffff"></path><g id="SvgjsG1020"><text id="SvgjsText1021" font-family="微软雅黑" text-anchor="middle" font-size="13px" width="270px" fill="#323232" font-weight="400" align="middle" lineHeight="125%" anchor="middle" family="微软雅黑" size="13px" weight="400" font-style="" opacity="1" y="67.875" transform="rotate(0)"></text></g></g><g id="SvgjsG1022" transform="translate(467.30882352941137,146.68839460715498)"><path id="SvgjsPath1023" d="M 0 4Q 0 0 4 0L 188.5 0Q 192.5 0 192.5 4L 192.5 44.5Q 192.5 48.5 188.5 48.5L 4 48.5Q 0 48.5 0 44.5Z" stroke="rgba(255,255,255,1)" stroke-width="2" fill-opacity="1" fill="#00bcd4"></path><g id="SvgjsG1024"><text id="SvgjsText1025" font-family="微软雅黑" text-anchor="middle" font-size="20px" width="173px" fill="#ffffff" font-weight="700" align="middle" lineHeight="125%" anchor="middle" family="微软雅黑" size="20px" weight="700" font-style="" opacity="1" y="9.25" transform="rotate(0)"><tspan id="SvgjsTspan1026" dy="25" x="96.5"><tspan id="SvgjsTspan1027" style="text-decoration:;">PMEM</tspan></tspan></text></g></g><g id="SvgjsG1028" transform="translate(500.05882352941137,82)"><path id="SvgjsPath1029" d="M 0 0L 127 0L 127 57L 0 57Z" stroke="none" fill="none"></path><g id="SvgjsG1030"><text id="SvgjsText1031" font-family="微软雅黑" text-anchor="middle" font-size="20px" width="127px" fill="#00bcd4" font-weight="700" align="middle" lineHeight="125%" anchor="middle" family="微软雅黑" size="20px" weight="700" font-style="" opacity="1" y="1" transform="rotate(0)"><tspan id="SvgjsTspan1032" dy="25" x="63.5"><tspan id="SvgjsTspan1033" style="text-decoration:;">Server</tspan></tspan><tspan id="SvgjsTspan1034" dy="25" x="63.5"><tspan id="SvgjsTspan1035" style="text-decoration:;">(Primary)</tspan></tspan></text></g></g><g id="SvgjsG1036" transform="translate(418.80882352941137,270)"><path id="SvgjsPath1037" d="M 0 4Q 0 0 4 0L 285.5 0Q 289.5 0 289.5 4L 289.5 132Q 289.5 136 285.5 136L 4 136Q 0 136 0 132Z" stroke-dasharray="10,6" stroke="rgba(255,152,0,1)" stroke-width="2" fill-opacity="1" fill="#ffffff"></path><g id="SvgjsG1038"><text id="SvgjsText1039" font-family="微软雅黑" text-anchor="middle" font-size="13px" width="270px" fill="#323232" font-weight="400" align="middle" lineHeight="125%" anchor="middle" family="微软雅黑" size="13px" weight="400" font-style="" opacity="1" y="58.375" transform="rotate(0)"></text></g></g><g id="SvgjsG1040" transform="translate(467.30882352941137,343.68839460715503)"><path id="SvgjsPath1041" d="M 0 4Q 0 0 4 0L 188.5 0Q 192.5 0 192.5 4L 192.5 44.5Q 192.5 48.5 188.5 48.5L 4 48.5Q 0 48.5 0 44.5Z" stroke="rgba(255,255,255,1)" stroke-width="2" fill-opacity="1" fill="#ff9800"></path><g id="SvgjsG1042"><text id="SvgjsText1043" font-family="微软雅黑" text-anchor="middle" font-size="20px" width="173px" fill="#ffffff" font-weight="700" align="middle" lineHeight="125%" anchor="middle" family="微软雅黑" size="20px" weight="700" font-style="" opacity="1" y="9.25" transform="rotate(0)"><tspan id="SvgjsTspan1044" dy="25" x="96.5"><tspan id="SvgjsTspan1045" style="text-decoration:;">PMEM</tspan></tspan></text></g></g><g id="SvgjsG1046" transform="translate(500.05882352941137,279)"><path id="SvgjsPath1047" d="M 0 0L 127 0L 127 57L 0 57Z" stroke="none" fill="none"></path><g id="SvgjsG1048"><text id="SvgjsText1049" font-family="微软雅黑" text-anchor="middle" font-size="20px" width="127px" fill="#ff9800" font-weight="700" align="middle" lineHeight="125%" anchor="middle" family="微软雅黑" size="20px" weight="700" font-style="" opacity="1" y="1" transform="rotate(0)"><tspan id="SvgjsTspan1050" dy="25" x="63.5"><tspan id="SvgjsTspan1051" style="text-decoration:;">Server</tspan></tspan><tspan id="SvgjsTspan1052" dy="25" x="63.5"><tspan id="SvgjsTspan1053" style="text-decoration:;">(Secondary)</tspan></tspan></text></g></g><g id="SvgjsG1054" transform="translate(418.80882352941137,461)"><path id="SvgjsPath1055" d="M 0 4Q 0 0 4 0L 285.5 0Q 289.5 0 289.5 4L 289.5 132Q 289.5 136 285.5 136L 4 136Q 0 136 0 132Z" stroke-dasharray="10,6" stroke="rgba(255,152,0,1)" stroke-width="2" fill-opacity="1" fill="#ffffff"></path><g id="SvgjsG1056"><text id="SvgjsText1057" font-family="微软雅黑" text-anchor="middle" font-size="13px" width="270px" fill="#323232" font-weight="400" align="middle" lineHeight="125%" anchor="middle" family="微软雅黑" size="13px" weight="400" font-style="" opacity="1" y="58.375" transform="rotate(0)"></text></g></g><g id="SvgjsG1058" transform="translate(467.30882352941137,534.688394607155)"><path id="SvgjsPath1059" d="M 0 4Q 0 0 4 0L 188.5 0Q 192.5 0 192.5 4L 192.5 44.5Q 192.5 48.5 188.5 48.5L 4 48.5Q 0 48.5 0 44.5Z" stroke="rgba(255,255,255,1)" stroke-width="2" fill-opacity="1" fill="#ff9800"></path><g id="SvgjsG1060"><text id="SvgjsText1061" font-family="微软雅黑" text-anchor="middle" font-size="20px" width="173px" fill="#ffffff" font-weight="700" align="middle" lineHeight="125%" anchor="middle" family="微软雅黑" size="20px" weight="700" font-style="" opacity="1" y="9.25" transform="rotate(0)"><tspan id="SvgjsTspan1062" dy="25" x="96.5"><tspan id="SvgjsTspan1063" style="text-decoration:;">PMEM</tspan></tspan></text></g></g><g id="SvgjsG1064" transform="translate(500.05882352941137,470)"><path id="SvgjsPath1065" d="M 0 0L 127 0L 127 57L 0 57Z" stroke="none" fill="none"></path><g id="SvgjsG1066"><text id="SvgjsText1067" font-family="微软雅黑" text-anchor="middle" font-size="20px" width="127px" fill="#ff9800" font-weight="700" align="middle" lineHeight="125%" anchor="middle" family="微软雅黑" size="20px" weight="700" font-style="" opacity="1" y="1" transform="rotate(0)"><tspan id="SvgjsTspan1068" dy="25" x="63.5"><tspan id="SvgjsTspan1069" style="text-decoration:;">Server</tspan></tspan><tspan id="SvgjsTspan1070" dy="25" x="63.5"><tspan id="SvgjsTspan1071" style="text-decoration:;">(Secondary)</tspan></tspan></text></g></g><g id="SvgjsG1072"><path id="SvgjsPath1073" d="M145.04930627221609 267.4383946071549C 279.60840642547396 267.4383946071549 332.7497233761535 170.93839460715503 467.30882352941137 170.93839460715503" stroke="#00bcd4" stroke-width="2" fill="none" marker-end="url(#SvgjsMarker1074)"></path></g><g id="SvgjsG1076"><path id="SvgjsPath1077" d="M145.04930627221609 267.4383946071549C 318.86458590566633 267.4383946071549 293.4935438959611 558.938394607155 467.30882352941137 558.938394607155" stroke="#00bcd4" stroke-width="2" fill="none" marker-end="url(#SvgjsMarker1078)"></path></g><g id="SvgjsG1080"><path id="SvgjsPath1081" d="M145.04930627221609 267.4383946071549C 280.0760867050417 267.4383946071549 332.28204309658577 367.93839460715503 467.30882352941137 367.93839460715503" stroke="#00bcd4" stroke-width="2" fill="none" marker-end="url(#SvgjsMarker1082)"></path></g><g id="SvgjsG1084" transform="translate(825.6617647058827,271)"><path id="SvgjsPath1085" d="M 29.258823529411757 80.50000000000003C -24.382352941176464 57.50000000000003 9.752941176470586 40.250000000000014 21.944117647058818 34.500000000000014C 17.067647058823525 5.7500000000000036 78.02352941176468 0 102.40588235294115 11.500000000000007C 121.91176470588232 -5.7500000000000036 182.86764705882348 0 182.86764705882348 17.250000000000007C 231.6323529411764 11.500000000000007 251.13823529411758 34.500000000000014 231.6323529411764 63.250000000000036C 248.69999999999993 86.25000000000004 231.6323529411764 115.00000000000006 175.55294117647054 103.50000000000006C 163.3617647058823 118.45000000000006 114.59705882352938 118.45000000000006 102.40588235294115 103.50000000000006C 78.02352941176468 115.00000000000006 29.258823529411757 109.25000000000004 29.258823529411757 80.50000000000003Z" stroke="rgba(255,255,255,1)" stroke-width="2" fill-opacity="1" fill="#fbc02d"></path><g id="SvgjsG1086"><text id="SvgjsText1087" font-family="微软雅黑" text-anchor="middle" font-size="20px" width="224px" fill="#ffffff" font-weight="400" align="middle" lineHeight="125%" anchor="middle" family="微软雅黑" size="20px" weight="400" font-style="" opacity="1" y="42.50000000000003" transform="rotate(0)"><tspan id="SvgjsTspan1088" dy="25" x="122"><tspan id="SvgjsTspan1089" style="text-decoration:;">分布式SSD存储</tspan></tspan></text></g></g><g id="SvgjsG1090" transform="translate(209.83823529411723,300.758170181126)"><path id="SvgjsPath1091" d="M 0 0L 168 0L 168 41.17205424490305L 0 41.17205424490305Z" stroke="none" fill="none"></path><g id="SvgjsG1092"><text id="SvgjsText1093" font-family="微软雅黑" text-anchor="start" font-size="16px" width="168px" fill="#00bcd4" font-weight="700" align="middle" lineHeight="125%" anchor="start" family="微软雅黑" size="16px" weight="700" font-style="" opacity="1" y="-1.4139728775484741" transform="rotate(0)"><tspan id="SvgjsTspan1094" dy="20" x="0"><tspan id="SvgjsTspan1095" style="text-decoration:;">1、RDMA 写多副本 </tspan></tspan><tspan id="SvgjsTspan1096" dy="20" x="0"><tspan id="SvgjsTspan1097" style="text-decoration:;">PMEM</tspan></tspan></text></g></g><g id="SvgjsG1098" transform="translate(293.8382352941172,93.84419730357752)"><path id="SvgjsPath1099" d="M 96 0Q 87 0 87 9L 87 218.5Q 87 227.5 74 227.5Q 87 227.5 87 236.5L 87 446Q 87 455 96 455" stroke="rgba(0,188,212,1)" stroke-width="2" fill="none"></path><path id="SvgjsPath1100" d="M 0 0L 96 0L 96 455L 0 455Z" stroke="none" fill="none"></path><g id="SvgjsG1101"><text id="SvgjsText1102" font-family="微软雅黑" text-anchor="end" font-size="13px" width="69px" fill="#323232" font-weight="400" align="middle" lineHeight="125%" anchor="end" family="微软雅黑" size="13px" weight="400" font-style="" opacity="1" y="217.875" transform="rotate(0)"></text></g></g><g id="SvgjsG1103"><path id="SvgjsPath1104" d="M467.30882352941137 170.93839460715503C 312.06304467320285 170.93839460715503 85.0320060772844 82.75422114379148 85.03200607728434 238" stroke-dasharray="10,5,3,5" stroke="#ff9800" stroke-width="2" fill="none" marker-end="url(#SvgjsMarker1105)"></path></g><g id="SvgjsG1107" transform="translate(153.53200607728434,58)"><path id="SvgjsPath1108" d="M 0 0L 121.30622921683289 0L 121.30622921683289 41L 0 41Z" stroke="none" fill="none"></path><g id="SvgjsG1109"><text id="SvgjsText1110" font-family="微软雅黑" text-anchor="start" font-size="16px" width="122px" fill="#ff9800" font-weight="700" align="middle" lineHeight="125%" anchor="start" family="微软雅黑" size="16px" weight="700" font-style="" opacity="1" y="8.5" transform="rotate(0)"><tspan id="SvgjsTspan1111" dy="20" x="0"><tspan id="SvgjsTspan1112" style="text-decoration:;">2、IO callback</tspan></tspan></text></g></g><g id="SvgjsG1113" transform="translate(889.2820060772844,496.25)"><path id="SvgjsPath1114" d="M 0 0L 142.71799392271555 0L 142.71799392271555 38.43839460715503L 0 38.43839460715503Z" stroke="none" fill="none"></path><g id="SvgjsG1115"><text id="SvgjsText1116" font-family="微软雅黑" text-anchor="start" font-size="32px" width="143px" fill="#f57c00" font-weight="700" align="middle" lineHeight="125%" anchor="start" family="微软雅黑" size="32px" weight="700" font-style="" opacity="1" y="-6.780802696422484" transform="rotate(0)"><tspan id="SvgjsTspan1117" dy="40" x="0"><tspan id="SvgjsTspan1118" style="text-decoration:;">存储集群</tspan></tspan></text></g></g><g id="SvgjsG1119" transform="matrix(-1,1.2246467991473532e-16,-1.2246467991473532e-16,-1,833.6617431640625,548.8442001342773)"><path id="SvgjsPath1120" d="M 96 0Q 87 0 87 9L 87 218.5Q 87 227.5 74 227.5Q 87 227.5 87 236.5L 87 446Q 87 455 96 455" stroke="rgba(251,192,45,1)" stroke-width="2" fill="none"></path><path id="SvgjsPath1121" d="M 0 0L 96 0L 96 455L 0 455Z" stroke="none" fill="none"></path><g id="SvgjsG1122"><text id="SvgjsText1123" font-family="微软雅黑" text-anchor="end" font-size="13px" width="69px" fill="#323232" font-weight="400" align="middle" lineHeight="125%" anchor="end" family="微软雅黑" size="13px" weight="400" font-style="" opacity="1" y="217.875" transform="rotate(0)"></text></g></g><g id="SvgjsG1124" transform="translate(767.9757768604516,259.758170181126)"><path id="SvgjsPath1125" d="M 0 0L 121.30622921683289 0L 121.30622921683289 41L 0 41Z" stroke="none" fill="none"></path><g id="SvgjsG1126"><text id="SvgjsText1127" font-family="微软雅黑" text-anchor="start" font-size="16px" width="122px" fill="#fbc02d" font-weight="700" align="middle" lineHeight="125%" anchor="start" family="微软雅黑" size="16px" weight="700" font-style="" opacity="1" y="8.5" transform="rotate(0)"><tspan id="SvgjsTspan1128" dy="20" x="0"><tspan id="SvgjsTspan1129" style="text-decoration:;">3、转储</tspan></tspan></text></g></g></svg>